PathFileType	4	(X/Y/Z)	C:/ViconProjects/foot_20160225/trc/2_test02_dynamic.trc
DataRate	CameraRate	NumFrames	NumMarkers	Units	OrigDataRate	OrigDataStartFrame	OrigNumFrames
120.000000	120.000000	5	39	mm	120.000000	153	406
Frame#	Time	LFWT			RFWT			VBWT			LKNE			LANK			LMT5			LMT1			LHEL			LTOE			RKNE			RANK			RMT5			RMT1			RHEL			RTOE			T10			FHEAD			THEAD			RHEAD			LBSH			LELB			LOWR			RBSH			RELB			ROWR			LTHI			RTHI			LSHAN			RSHAN			LIHEL			LOHEL			RIHEL			ROHEL			LMT3			LNAVI			LCUNE			RMT3			RNAVI			RCUNE			
		X0	Y0	Z0	X1	Y1	Z1	X2	Y2	Z2	X3	Y3	Z3	X4	Y4	Z4	X5	Y5	Z5	X6	Y6	Z6	X7	Y7	Z7	X8	Y8	Z8	X9	Y9	Z9	X10	Y10	Z10	X11	Y11	Z11	X12	Y12	Z12	X13	Y13	Z13	X14	Y14	Z14	X15	Y15	Z15	X16	Y16	Z16	X17	Y17	Z17	X18	Y18	Z18	X19	Y19	Z19	X20	Y20	Z20	X21	Y21	Z21	X22	Y22	Z22	X23	Y23	Z23	X24	Y24	Z24	X25	Y25	Z25	X26	Y26	Z26	X27	Y27	Z27	X28	Y28	Z28	X29	Y29	Z29	X30	Y30	Z30	X31	Y31	Z31	X32	Y32	Z32	X33	Y33	Z33	X34	Y34	Z34	X35	Y35	Z35	X36	Y36	Z36	X37	Y37	Z37	X38	Y38	Z38	
153	1.275000	362.367767	64.206787	939.073975	355.617645	350.469696	944.065796	585.119324	216.768280	940.284180	364.114502	9.275510	462.187531	700.175354	47.773800	238.018585	680.410034	16.718781	136.012192	638.824890	72.982857	94.551811	740.263245	117.601624	273.683685	627.402893	53.459358	62.011440	343.535431	345.098480	461.651947	407.941925	324.532837	62.889980	301.818909	345.384399	33.839870	257.964569	262.310394	44.290588	474.120331	260.891327	45.158260	217.173141	278.412476	37.071892	553.409546	150.487930	1279.315674	213.509933	230.821945	1606.432007	310.749969	237.793396	1706.520996	428.836426	232.656570	1655.402832	381.654755	15.509740	1413.608765	397.968567	-103.977608	1098.574829	244.559128	-88.931137	890.903870	411.592743	420.724548	1409.860596	503.454224	536.859497	1106.586060	415.186005	549.801270	857.278320	278.288635	71.137001	625.227295	283.814728	299.253601	584.575806	443.311829	86.615967	341.668274	348.451111	256.354797	234.041809	715.688538	142.237442	241.726990	735.092285	74.303162	253.277466	433.132599	229.947784	45.654179	441.621368	303.575836	42.100281	653.278992	39.923790	105.072708	666.982788	127.431381	175.602570	711.471924	34.005959	186.686966	263.296722	300.908051	38.724258	356.287292	228.941910	55.221870	367.694550	328.068970	34.889858
154	1.283333	350.639648	66.260818	942.186707	345.022675	351.691681	945.526550	573.712646	216.485123	942.924194	342.294556	10.308580	466.560699	672.205200	49.353981	232.735947	646.813721	19.063061	132.524933	603.479675	75.676353	93.701317	715.237122	118.538277	266.964935	591.369141	56.698849	61.061131	341.905731	345.901672	461.741089	407.147034	324.250336	63.481468	301.822266	345.517761	33.714939	257.982361	262.578613	44.365021	474.353119	261.034271	45.515499	217.067291	278.608978	37.017860	541.737061	151.937653	1281.625244	201.537872	230.759949	1608.222778	298.546204	237.889664	1708.445435	416.952179	233.158371	1657.700928	371.684235	15.844650	1415.826416	391.805908	-104.269897	1101.184326	244.477432	-91.561653	889.021790	398.393158	421.150726	1412.197144	487.191559	539.087524	1108.325562	394.205322	551.690247	861.306213	261.023438	72.124741	631.871094	279.168030	300.698853	583.131409	417.699554	87.128639	344.518677	346.702637	256.844330	233.866470	688.914307	143.929306	236.205414	708.925415	75.201439	246.828445	432.738800	229.680435	45.949982	441.711884	303.415253	42.298550	617.231384	41.982979	103.485657	636.250244	129.164581	172.927261	680.224976	35.588120	181.163773	263.214081	301.017761	38.627369	356.157562	229.110886	55.452648	368.229584	328.257996	34.531891
155	1.291667	338.833099	67.781578	944.968323	334.704163	353.723083	947.134827	562.681702	215.770859	945.373352	320.818817	11.159420	471.038635	643.862671	51.360119	226.725754	612.718689	21.445869	128.745941	567.903198	78.425926	92.153481	689.656067	120.543190	258.917053	553.754639	59.309189	60.026199	340.048492	346.653168	461.566833	407.194031	324.157104	63.638660	301.846436	345.597778	33.619919	257.983154	262.737518	44.401112	474.107910	260.776398	45.769402	217.188904	278.796387	37.009701	530.545166	153.195526	1283.822021	189.990616	231.035858	1609.740723	286.843079	238.201950	1710.154785	405.071442	233.653168	1659.329224	361.707062	16.092300	1417.701904	386.368073	-104.302696	1103.761230	244.496078	-94.185493	887.399719	385.867401	421.296844	1414.378418	471.542358	540.899597	1109.996338	372.979431	553.669006	865.498230	243.479935	73.082153	637.856262	274.758759	302.096466	581.313904	392.011932	88.374588	346.573395	345.524231	257.287720	233.514771	659.886658	143.905518	228.560425	681.323669	75.351570	239.632736	432.701080	229.699326	46.145920	441.479248	303.198364	42.388599	582.381470	44.279400	101.454971	605.531189	131.385330	169.265244	649.504761	37.307281	175.469391	263.182251	301.077820	38.572788	355.910461	229.167633	55.728470	368.131104	328.068115	34.531311
156	1.300000	326.858551	69.568153	947.694641	324.087128	355.207764	948.506470	551.467102	215.019455	947.722290	299.866821	12.183670	475.347992	615.170532	53.545879	220.704269	579.044373	23.021151	124.894386	532.121216	79.920540	90.523956	662.855530	122.077797	250.003128	515.370605	60.834148	59.900681	338.618622	347.050690	461.505310	406.484924	321.934387	64.154007	301.836945	345.680176	33.572311	257.938141	262.984436	44.537640	474.069305	260.162842	46.426979	217.026077	278.964722	37.258282	519.223694	154.615112	1285.644897	178.390747	231.036697	1611.023926	274.808685	238.285461	1711.569702	392.953583	233.570999	1661.112183	350.944427	16.577259	1419.202026	380.416473	-104.535873	1105.976807	244.273193	-96.503098	886.183044	373.492004	421.547485	1416.283447	455.395844	543.136475	1111.787720	350.855652	554.973511	869.409729	226.406342	73.732689	644.577393	270.470184	302.636536	579.766602	368.153900	89.540627	348.169525	343.395477	257.895386	233.802567	632.057861	146.619400	221.239899	653.042480	78.671700	230.893570	433.004669	230.007843	47.004848	441.598175	303.004700	42.803360	546.700928	45.832890	99.304718	573.784058	133.139450	165.499649	617.323425	38.744881	169.630814	263.079346	301.154388	38.532360	355.677704	229.186920	55.980629	368.012970	327.890747	34.533321
157	1.308333	315.280060	71.706482	950.503784	314.692383	356.841644	949.499817	540.479980	214.001526	949.651184	279.321655	13.163310	479.496094	585.632996	55.468369	213.523468	544.151855	24.023741	120.368797	495.295288	80.399910	88.742447	636.124756	124.336227	240.042236	476.610474	60.896240	60.176029	336.056000	346.678314	461.471252	406.285736	321.617798	64.387154	301.900269	345.728302	33.490742	257.955841	263.110016	44.452148	473.966400	259.392731	46.705021	217.101151	278.999298	37.235882	507.812958	155.522263	1287.576294	166.350372	230.940018	1612.099243	262.955688	238.473083	1712.721924	381.269409	234.028168	1662.507568	340.689606	16.953291	1420.802490	375.073792	-104.734383	1108.283447	244.280090	-99.028687	884.780884	361.038300	421.888855	1418.140381	440.112671	544.739990	1113.359253	329.809052	556.599731	873.461426	209.536011	74.956078	650.812988	265.654755	303.129578	578.200317	343.780182	91.398422	350.151733	342.645966	258.071075	233.970535	602.430725	148.206894	212.731049	624.756226	80.908150	222.402649	431.288544	228.972641	47.107880	442.687744	302.257263	42.079189	510.896851	46.936649	97.210037	541.743958	134.965118	160.520142	585.699341	40.509201	163.085968	263.093109	301.171326	38.518131	355.493469	229.253235	56.159939	367.913391	327.734436	34.550678
